<svg width="320" height="320" viewBox="0 0 320 320" fill="none" xmlns="http://www.w3.org/2000/svg">
<path d="M226.5 98C226.5 95.2386 224.261 93 221.5 93L176.5 93C173.739 93 171.5 95.2386 171.5 98C171.5 100.761 173.739 103 176.5 103L216.5 103L216.5 143C216.5 145.761 218.739 148 221.5 148C224.261 148 226.5 145.761 226.5 143L226.5 98ZM94.4645 217.964C92.5118 219.917 92.5118 223.083 94.4645 225.036C96.4171 226.988 99.5829 226.988 101.536 225.036L94.4645 217.964ZM217.964 94.4645L156.214 156.214L163.286 163.286L225.036 101.536L217.964 94.4645ZM156.214 156.214L94.4645 217.964L101.536 225.036L163.286 163.286L156.214 156.214Z" fill="white"/>
</svg>
