<?xml version="1.0" encoding="utf-8"?>
<!-- Generator: Adobe Illustrator 16.0.0, SVG Export Plug-In . SVG Version: 6.00 Build 0)  -->
<!DOCTYPE svg PUBLIC "-//W3C//DTD SVG 1.1//EN" "http://www.w3.org/Graphics/SVG/1.1/DTD/svg11.dtd">
<svg version="1.1" id="レイヤー_2" xmlns="http://www.w3.org/2000/svg" xmlns:xlink="http://www.w3.org/1999/xlink" x="0px"
	 y="0px" width="159.17px" height="130px" viewBox="0 0 159.17 130" enable-background="new 0 0 159.17 130" xml:space="preserve">
<g>
	<g>
		<path fill="#1565E6" d="M93.638,103.424C83.975,119.286,67.94,130,49.781,130C20.235,130,0,115.51,0,82.721
			C0,47.526,34.88,0,64.427,0c14.357,0,23.925,8.51,29.961,21.012C67.62-3.53,30.744,32.727,33.507,63.913
			C35.615,87.854,73.801,113.875,93.638,103.424z"/>
		<linearGradient id="SVGID_1_" gradientUnits="userSpaceOnUse" x1="47.021" y1="88.5381" x2="104.468" y2="31.0911">
			<stop  offset="0" style="stop-color:#A8ADB5"/>
			<stop  offset="0.21" style="stop-color:#A1AAB7"/>
			<stop  offset="1" style="stop-color:#1565E6"/>
		</linearGradient>
		<path fill="url(#SVGID_1_)" d="M94.404,21.027l-0.017-0.016C67.62-3.53,30.744,32.727,33.507,63.913
			c2.108,23.94,40.294,49.962,60.131,39.511c6.084-9.959,9.646-21.938,9.646-34.577C103.284,51.996,100.824,34.269,94.404,21.027z
			 M60.338,71.945c-14.007,0-23.605-6.244-23.605-20.364c0-15.169,16.531-35.657,30.537-35.657S85.685,31.479,85.685,45.6
			S74.328,71.945,60.338,71.945z"/>
	</g>
	<g>
		<path fill="#1565E6" d="M102.72,130V0h10.853v56.272h14.41c2.31,0,4.424-0.896,6.339-2.694c1.916-1.792,3.435-4.425,4.56-7.892
			c1.125-3.465,1.687-7.614,1.687-12.443V0h10.854v33.057c0,8.543-1.034,16.035-3.1,22.472c-2.068,6.438-4.805,11.454-8.209,15.042
			l8.026,35.657c0.303,1.486,0.698,2.54,1.185,3.158c0.487,0.62,1.125,0.929,1.916,0.929h7.931V130h-9.572
			c-2.859,0-5.214-1.235-7.068-3.714c-1.855-2.475-3.269-5.879-4.241-10.214l-9.119-40.485c-0.671,0.124-1.309,0.217-1.916,0.277
			c-0.609,0.065-1.277,0.093-2.007,0.093h-11.674V130H102.72z"/>
	</g>
</g>
</svg>
